<?xml version="1.0" encoding="utf-8"?>
<!-- Generator: Adobe Illustrator 22.1.0, SVG Export Plug-In . SVG Version: 6.00 Build 0)  -->
<svg version="1.1" id="Layer_1" xmlns="http://www.w3.org/2000/svg" xmlns:xlink="http://www.w3.org/1999/xlink" x="0px" y="0px"
	 viewBox="0 0 686 664" style="enable-background:new 0 0 686 664;" xml:space="preserve">
<style type="text/css">
	.st0{fill:#333333;}
	.st1{fill:#DAA520;}
</style>
<g>
	<path class="st0" d="M251.1,349.2c-26.3,0-38.5-10.2-38.5-31.9v-48.6c0-21.9,12.2-32.1,38.5-32.1h38.1c3.9,0,5.6,1.7,5.6,5.6v18.9
		c0,3.9-1.7,5.6-5.6,5.6h-31.4c-6.6,0-9.5,2.5-9.5,7.8v37.2c0,5.2,3,7.5,9.5,7.5h31.4c3.9,0,5.6,1.7,5.6,5.6v18.6
		c0,3.9-1.7,5.6-5.6,5.6H251.1z"/>
	<path class="st0" d="M358.7,351.5c-39.1,0-48.6-12.8-48.6-31.9v-53.3c0-19.1,9.5-32.1,48.6-32.1s48.5,13,48.5,32.1v53.3
		C407.1,338.7,397.8,351.5,358.7,351.5z M358.7,321.3c11.4,0,13.1-3.1,13.1-7.3v-42.1c0-4.1-1.7-7.2-13.1-7.2
		c-11.3,0-13.1,3.1-13.1,7.2V314C345.5,318.2,347.4,321.3,358.7,321.3z"/>
	<path class="st0" d="M432.6,349.2c-3.9,0-5.6-1.7-5.6-5.6V242.2c0-3.9,1.7-5.6,5.6-5.6h52.7c26.3,0,38.5,10.2,38.5,31.9v48.8
		c0,21.7-12.2,31.9-38.5,31.9H432.6z M462.5,319.6h18.6c5,0,7.3-2.3,7.3-7.7v-38c0-5.2-2.3-7.5-7.3-7.5h-18.6V319.6z"/>
	<path class="st0" d="M549.2,349.2c-3.9,0-5.6-1.7-5.6-5.6V242.2c0-3.9,1.7-5.6,5.6-5.6h72.5c3.9,0,5.6,1.7,5.6,5.6v18.3
		c0,3.9-1.7,5.6-5.6,5.6h-43.2v12h30.5c3.9,0,5.6,1.7,5.6,5.6v16.7c0,3.9-1.7,5.6-5.6,5.6h-30.5v13.4h43.2c3.9,0,5.6,1.7,5.6,5.6
		v18.3c0,3.9-1.7,5.6-5.6,5.6H549.2z"/>
</g>
<g>
	<path class="st0" d="M216.7,425.4c-2.1,0-3.1-0.9-3.1-3.1v-55.2c0-2.1,0.9-3.1,3.1-3.1h13.7c1.8,0,2.9,0.7,3.9,2.6l7.7,13.9
		c0.6,1,0.9,1.4,1.5,1.4h0.8c0.7,0,0.9-0.4,1.5-1.4l7.6-13.9c1-1.9,2.1-2.6,3.9-2.6h13.8c2.1,0,3.1,0.9,3.1,3.1v55.2
		c0,2.1-0.9,3.1-3.1,3.1H258c-2.2,0-3.1-0.9-3.1-3.1v-30l-5,9.3c-1,2-2.3,2.7-4.5,2.7H242c-2.2,0-3.5-0.8-4.5-2.7l-5-9.3v30
		c0,2.1-0.9,3.1-3.1,3.1H216.7z"/>
	<path class="st0" d="M300.3,425.4h-12.5c-2.1,0-3.1-0.9-3.1-3.1v-22.5c0-3.4,1-7.7,3.3-13.6l7.4-19.4c0.7-2,2-2.8,4.3-2.8h22.9
		c2.2,0,3.6,0.9,4.3,2.8l7.4,19.4c2.3,6,3.3,10.2,3.3,13.6v22.5c0,2.1-0.9,3.1-3.1,3.1h-12.9c-2.3,0-3.3-0.9-3.3-3.1v-11.9h-15.1
		v11.9C303.4,424.4,302.4,425.4,300.3,425.4z M304.2,394.9h13.4l-4-13c-0.4-1-0.9-1.4-1.6-1.4h-2.1c-0.7,0-1.2,0.4-1.6,1.4
		L304.2,394.9z"/>
	<path class="st0" d="M368.3,425.4c-14.3,0-21-5.5-21-17.4v-26.5c0-11.9,6.6-17.5,21-17.5h20.8c2.1,0,3.1,0.9,3.1,3.1v10.3
		c0,2.1-0.9,3.1-3.1,3.1h-17.1c-3.6,0-5.2,1.4-5.2,4.3V405c0,2.8,1.6,4.1,5.2,4.1h17.1c2.1,0,3.1,0.9,3.1,3.1v10.1
		c0,2.1-0.9,3.1-3.1,3.1H368.3z"/>
	<path class="st0" d="M404.8,425.4c-2.1,0-3.1-0.9-3.1-3.1v-55.2c0-2.1,0.9-3.1,3.1-3.1H418c2.1,0,3.1,0.9,3.1,3.1v18.5h14.2v-18.5
		c0-2.1,0.9-3.1,3.1-3.1h13.2c2.1,0,3.1,0.9,3.1,3.1v55.2c0,2.1-0.9,3.1-3.1,3.1h-13.2c-2.1,0-3.1-0.9-3.1-3.1v-18.9h-14.2v18.9
		c0,2.1-0.9,3.1-3.1,3.1H404.8z"/>
	<path class="st0" d="M465.1,422.3v-10.1c0-2.1,0.9-3.1,3.1-3.1h8.4v-28.6h-8.4c-2.1,0-3.1-0.9-3.1-3.1v-10.3c0-2.1,0.9-3.1,3.1-3.1
		h36.3c2.1,0,3.1,0.9,3.1,3.1v10.3c0,2.1-0.9,3.1-3.1,3.1h-8.3v28.6h8.3c2.1,0,3.1,0.9,3.1,3.1v10.1c0,2.1-0.9,3.1-3.1,3.1h-36.3
		C466,425.4,465.1,424.4,465.1,422.3z"/>
	<path class="st0" d="M521.1,425.4c-2.1,0-3.1-0.9-3.1-3.1v-55.2c0-2.1,0.9-3.1,3.1-3.1h8.9c2.2,0,3.6,0.6,5,2.3l16.5,18.9v-18.2
		c0-2.1,0.9-3.1,3.1-3.1h12.8c2.1,0,3.1,0.9,3.1,3.1v55.2c0,2.1-0.9,3.1-3.1,3.1h-12.8c-2.1,0-3.1-0.9-3.1-3.1v-10.5L537,394.2v28.1
		c0,2.1-0.9,3.1-3.1,3.1H521.1z"/>
	<path class="st0" d="M585.3,425.4c-2.1,0-3.1-0.9-3.1-3.1v-55.2c0-2.1,0.9-3.1,3.1-3.1h39.6c2.1,0,3.1,0.9,3.1,3.1v10
		c0,2.1-0.9,3.1-3.1,3.1h-23.5v6.6h16.6c2.1,0,3.1,0.9,3.1,3.1v9.1c0,2.1-0.9,3.1-3.1,3.1h-16.6v7.3h23.5c2.1,0,3.1,0.9,3.1,3.1v10
		c0,2.1-0.9,3.1-3.1,3.1H585.3z"/>
</g>
<path class="st1" d="M555.7,488.7c7.3-9.5,13.9-19.4,19.7-29.6c4-7-1.1-15.7-9.1-15.7h-75.9c-3,0-5.9,1.4-7.8,3.7
	c-3.7,4.4-7.6,8.8-11.7,12.9c-70.6,70.6-185,70.6-255.6,0c-70.6-70.6-70.6-185,0-255.6s185-70.6,255.6,0c3.1,3.1,6,6.3,8.9,9.5
	c2,2.3,4.9,3.6,7.9,3.6h81c8,0,13.1-8.5,9.3-15.5c-5.5-10.1-11.7-20-18.7-29.4l19.7-28.8c2.7-3.9,1.6-8.6-1.7-11.9l-16.2-16.2
	l-0.6-0.6L544,98.7c-3.3-3.3-8-4.4-11.9-1.7L503,116.9c-16.5-12-33.8-22.1-52.1-29.8l2.8-35.2c0.4-4.7-2.6-9-7.2-10.3l-46-12.3
	c-4.6-1.2-9.3,1-11.4,5.2l-15.6,32.6c-19.5-1.9-39.2-1.7-58.6,0.7l-15.9-33.3c-2-4.3-6.8-6.5-11.4-5.2l-46,12.3
	c-4.6,1.2-7.6,5.5-7.2,10.2l3,37.8c-17.7,8.1-34.7,18.2-50.6,30.3l-31.3-21.7c-3.9-2.7-9.8-2.8-13.1,0.5l-15.9,15.9l-0.6,0.6
	l-15.9,15.9c-3.3,3.3-3.2,9.2-0.5,13.1l21.4,31c-12.2,15.9-22.1,33-30.2,50.7l-37.7-2.9c-4.7-0.4-9,2.7-10.2,7.3l-12.3,46
	c-1.2,4.6,1,9.3,5.2,11.4l33.3,15.9c-2.4,19.5-2.6,39.1-0.7,58.6l-32.6,15.6c-4.3,2-6.5,6.8-5.2,11.4l12.3,46
	c1.2,4.6,5.5,7.6,10.2,7.2l35.2-2.8c7.8,18.2,17.7,35.8,29.7,52.2l-20.6,29.8c-2.7,3.9-2.6,9.5,0.8,12.8l16.2,16.2l0.6,0.6
	l16.2,16.2c3.3,3.3,8.9,3.4,12.8,0.8l29.6-20.4c16.5,12,34.1,21.8,52.3,29.6l-2.7,35.1c-0.4,4.7,2.7,9,7.2,10.2l46,12.3
	c4.6,1.2,9.3-1,11.4-5.2l15.6-32.7c19.5,1.9,39.2,1.7,58.6-0.7l15.9,33.3c2,4.3,6.8,6.5,11.4,5.2l46-12.3c4.6-1.2,7.6-5.5,7.2-10.2
	l-3-37.8c17.7-8.1,34.7-18.2,50.6-30.3l30.5,21c3.9,2.7,9.1,2.1,12.4-1.2l15.9-15.9l0.6-0.6l15.9-15.9c3.3-3.3,3.9-8.5,1.2-12.4
	L555.7,488.7z"/>
</svg>
